<svg xmlns="http://www.w3.org/2000/svg" viewBox="0 0 2100 500">
  <path d="M137.1 326.3H97.5V123.8h39.6v202.5zm.6-100.6L199 123.8h44.2l-65 100.5 65 101.9H199l-61.3-100.5zm240.9 18.4v82.2H339V123.8h39.6V206h65.3v-82.2h39.6v202.5h-39.6v-82.2h-65.3zm261 82.2H600V123.8h48.1c15.3 0 26.7.5 34.2 1.6 7.5 1.1 13.9 2.8 19.1 5.2 11.5 5.4 20.3 12.9 26.3 22.5 6 9.7 9.1 21 9.1 34 0 15.7-4.3 29-12.9 39.9-8.6 10.9-20.3 17.8-35.1 20.8l50.6 78.5h-47.2l-52.5-93.9-.1 93.9zm0-103.8h8.8c16.1 0 28.3-2.9 36.7-8.7 8.3-5.8 12.5-14.3 12.5-25.4 0-10.8-3.5-18.7-10.5-23.8-7-5.1-17.9-7.7-32.7-7.7h-14.8v65.6zm659.1 103.8h-38.9V123.8h37.6l83.8 129.3V123.8h38.9v202.5h-36.8l-84.6-133.2v133.2zm229.4-101.7c0-11.1 1.5-21.6 4.5-31.5 3-9.9 7.4-19.1 13.2-27.7 10-14.6 22.6-25.8 37.7-33.7 15.1-7.9 31.6-11.9 49.5-11.9 13.5 0 26.4 2.6 38.9 7.8 12.5 5.2 23.6 12.7 33.5 22.4 10.1 10.1 17.8 21.5 23.1 34.1 5.3 12.6 7.9 25.9 7.9 39.8 0 14.5-2.5 28-7.5 40.7-5 12.7-12.3 24-21.9 33.8-9.7 10.3-21.1 18.2-34 23.7-12.9 5.5-26.5 8.3-40.6 8.3-15.1 0-29-2.7-41.8-8.1-12.7-5.4-24-13.4-33.8-23.9-9.5-10-16.6-21.2-21.5-33.7-4.8-12.6-7.2-25.9-7.2-40.1zm41.4-1.4c0 8.7 1.4 16.8 4.3 24.3s7.1 14.4 12.8 20.6c6.2 6.8 13.3 12 21.2 15.6 7.9 3.6 16.1 5.5 24.5 5.5 17.7 0 32.6-6.3 44.6-18.9 12-12.6 18-28.3 18-47.1 0-17.2-6.1-31.9-18.2-44.1-12.1-12.2-26.7-18.3-43.7-18.3-17.7 0-32.8 6.1-45.1 18.2-12.2 12.2-18.4 26.9-18.4 44.2zm262.5 40.4 36.3-.1v2.9c0 8.5 2.2 15.3 6.6 20.4 4.4 5.1 10.3 7.7 17.6 7.7 7.9 0 14.1-2.4 18.7-7.1 4.6-4.8 6.9-11.2 6.9-19.4 0-13-9.3-22.4-27.9-28-2.4-.7-4.3-1.3-5.7-1.8-15.7-4.9-27.4-11.9-35-20.9-7.6-9-11.4-20.5-11.4-34.3 0-19 5.3-34.3 15.8-45.8s24.5-17.3 42.1-17.3c16.4 0 29.5 5.1 39.2 15.3 9.7 10.2 15.2 24.6 16.3 43h-35.9v-1.7c0-6.4-2-11.6-5.9-15.5-3.9-3.9-9-5.9-15.3-5.9-6.5 0-11.6 2-15.4 6.1-3.8 4.1-5.6 9.6-5.6 16.6 0 3 .4 5.6 1.2 7.8.8 2.3 2 4.3 3.7 6.1 3.8 4.2 12 8 24.5 11.6 5.6 1.5 9.8 2.7 12.8 3.8 13.9 4.7 24.2 11.5 30.8 20.3 6.6 8.8 9.9 20.1 9.9 33.8 0 20.9-5.8 37.6-17.4 50.3-11.6 12.7-27 19-46.1 19-18.1 0-32.6-6.1-43.8-18.3-11-12.4-16.7-28.6-17-48.6zm-389.7 103.6-5.4 6c-2.6-2.3-5.3-4-8-5-2.7-1.1-5.5-1.6-8.6-1.6-6.2 0-11.4 2.1-15.5 6.5-4.2 4.3-6.2 9.6-6.2 15.9 0 6.3 2.1 11.6 6.2 15.9 4.2 4.3 9.3 6.5 15.5 6.5 2.7 0 5.3-.4 7.8-1.3 2.4-.9 4.7-2.2 6.8-3.9v-13.4h-12v-7.9h20.6v26c-3.8 2.9-7.6 5.1-11.4 6.6-3.8 1.4-7.7 2.2-11.8 2.2-8.8 0-16.1-2.9-21.9-8.7-5.8-5.8-8.7-13.1-8.7-21.9 0-3.9.7-7.6 2.1-11.2 1.4-3.6 3.4-6.8 5.9-9.6 2.9-3.2 6.3-5.6 10.1-7.3 3.8-1.7 8-2.5 12.5-2.5 4.3 0 8.4.8 12.3 2.3 3.9 1.5 7.2 3.6 9.7 6.4zm84.5-7.3h11.1c3.1 0 5.7.2 7.7.5 2 .4 3.8.9 5.3 1.7 2.5 1.3 4.5 3.3 5.9 5.9s2.2 5.6 2.2 8.8c0 3.8-1.2 7.1-3.7 9.9-2.5 2.8-5.8 4.5-9.9 5.2l17.7 24-8.2 3.5-19.5-28.3V418l-8.7.7.1-58.8zm8.7 7.7V386h3.1c3.7 0 6.6-.8 8.7-2.5 2-1.7 3.1-4 3.1-7s-1-5.2-2.9-6.7-4.8-2.3-8.6-2.3h-3.4zm134.6-9.2c3.8 0 7.4.6 10.8 1.9 3.4 1.2 6.5 3 9.1 5.4 3.4 3.1 6.1 6.6 7.9 10.6 1.8 4 2.7 8.3 2.7 12.7 0 3.8-.7 7.6-2.1 11.2-1.4 3.6-3.4 6.8-6 9.7-2.9 3.2-6.2 5.6-10.1 7.3-3.8 1.7-8 2.5-12.5 2.5-3.8 0-7.4-.6-10.9-1.9-3.4-1.2-6.4-3-9-5.4-3.5-3.1-6.1-6.6-7.9-10.7-1.8-4-2.8-8.3-2.8-12.7 0-4.4.9-8.7 2.8-12.7 1.8-4 4.5-7.6 7.9-10.6 2.6-2.3 5.6-4.1 9-5.4 3.6-1.3 7.2-1.9 11.1-1.9zm0 8.1c-6.2 0-11.4 2.1-15.5 6.5-4.2 4.3-6.2 9.6-6.2 15.9 0 6.3 2.1 11.6 6.2 15.9 4.2 4.3 9.3 6.4 15.6 6.4 6.2 0 11.3-2.2 15.5-6.5 4.2-4.3 6.3-9.6 6.3-15.9 0-6.3-2.1-11.6-6.2-15.9-4.3-4.2-9.5-6.4-15.7-6.4zm121.1-7.4v33c0 7 .9 11.9 2.7 14.8 1.8 2.8 4.8 4.2 9.1 4.2s7.4-1.3 9.3-4c1.9-2.7 2.9-7.1 2.9-13.3V360l8.4-.8v36.6c0 4.7-.3 8.4-1 10.9s-1.9 4.7-3.5 6.6c-1.6 1.9-3.9 3.4-6.7 4.6-2.8 1.1-5.8 1.7-8.9 1.7-7 0-12.3-2-15.7-5.9-3.5-3.9-5.2-9.9-5.2-17.9v-35.7l8.6-1zm117.3.8h15.4c6.6 0 11.7 1.5 15.2 4.5s5.2 7.4 5.2 13.1c0 5.4-2 9.7-6 12.9-4 3.2-9.5 4.7-16.5 4.7-.9 0-2.4-.1-4.4-.2h-.2v23l-8.7.7v-58.7zm8.7 7.7V387l2.4.3c.9.1 1.8.1 2.9.1 4.2 0 7.4-.8 9.6-2.5 2.2-1.7 3.3-4.1 3.3-7.4 0-3.4-1-5.9-3-7.5-2-1.6-5.2-2.4-9.5-2.4h-5.7zm94.8-227.9c0 3.7-.9 7.1-2.8 10.3-1.8 3.2-4.4 5.7-7.5 7.5-3.2 1.8-6.6 2.8-10.3 2.8-3.7 0-7.1-.9-10.3-2.8-3.2-1.8-5.7-4.3-7.5-7.5-1.8-3.2-2.8-6.6-2.8-10.3 0-3.7.9-7.1 2.8-10.3 1.8-3.2 4.4-5.7 7.5-7.5 3.2-1.8 6.6-2.8 10.3-2.8 3.7 0 7.1.9 10.3 2.8 3.2 1.8 5.7 4.3 7.5 7.5 1.9 3.2 2.8 6.7 2.8 10.3zm-4 0c0-4.6-1.6-8.5-4.9-11.7-3.2-3.2-7.2-4.9-11.7-4.9-4.6 0-8.5 1.6-11.7 4.9-3.2 3.2-4.9 7.2-4.9 11.7s1.6 8.5 4.9 11.7c3.2 3.2 7.2 4.9 11.7 4.9 4.6 0 8.5-1.6 11.7-4.9 3.3-3.2 4.9-7.1 4.9-11.7zm-25.9-11h9.8c2.8 0 4.8.6 6.1 1.7 1.2 1.1 1.9 2.6 1.9 4.5 0 1.5-.5 2.8-1.4 3.8-1 1.1-2.5 1.9-4.5 2.3.8.3 1.5.7 1.9 1 .6.5 1.1 1.2 1.8 2.2 0 .1 1.2 2.2 3.6 6.4h-6.5c-2.1-4.2-3.5-6.7-4.2-7.5-.7-.8-1.4-1.2-2.2-1.2-.2 0-.4 0-.7.1v8.7h-5.5l-.1-22zm5.4 9.4h2.4c1.6 0 2.7-.3 3.3-.8.6-.5 1-1.2 1-2s-.3-1.5-.9-2c-.6-.5-1.7-.8-3.2-.8h-2.6v5.6z"/>
  <path fill="#C33" d="M985.5 313.1c-69.5-2.5-164.4-34.2-184.1-80-17-41.7-.1-90.2 80.1-124.7 47.6-19.8 119.6-25.4 175.1-20.3 78.7 7.2 153.7 47.9 153.8 48.1v57.1l-.1 3.8s-24.4-22.1-54.9-39.9c-28.7-16.8-55-28.6-107.2-33.4-12.2-1.1-33-3.9-66.7.8-13.6 1.9-32.8 3.3-76 22.3-14 6.7-26.9 13.8-36.9 22.1-5.2 4.3-12.3 10.4-17.3 15.6-12.3 15.4-18.8 27-15.7 48 3.6 15.8 10.6 25.7 30.9 40.8 8.8 6.6 9.8 6.5 13.7 8.5 36.3 18.8 65.3 25.7 106.7 30.9m2.4-177.7c69.7-.3 168.5 27.6 194.2 72.6 22.5 40.9 12.1 90-63.3 127.5-44.8 21.7-115.9 30.1-171.9 27.2-79.5-4.1-159.7-41.8-159.8-41.9l-7.6-56.9-.5-3.8s27.3 21.1 60.1 37.7c30.9 15.6 58.7 26.4 111.4 29.1 12.3.7 33.4 2.5 66.4-3.4 13.3-2.4 32.3-4.6 72.8-25.2 13.1-7.2 25-14.8 33.8-23.5 4.6-4.5 10.9-10.9 15.2-16.2 10.2-15.9 15.2-27.7 9.3-48.5-5.7-15.6-14-25.2-36.2-39.5-9.6-6.2-10.6-6.1-14.8-8-38.7-17.3-68.5-23-110.6-26.6"/>
</svg>