<svg xmlns="http://www.w3.org/2000/svg" fill="#900" viewBox="0 0 1200 500">
  <path d="M1113.5 323.6h-7.3v19.1h-6.4v-19.1h-7.4v-5.5h21.1v5.5zm2.9-5.5h9.4l4.3 16.4 4.3-16.4h9.4v24.6h-6V324h-.1l-5.1 18.7h-4.9l-5.2-18.7h-.1v18.7h-6v-24.6zm-257 23.2c-9 3.8-18 5.7-27.1 5.7-14.4 0-27.4-2.5-38.9-7.5s-21.2-11.9-29.1-20.7c-7.9-8.8-14-19.1-18.2-31-4.2-11.9-6.3-24.7-6.3-38.4 0-14.1 2.1-27.1 6.3-39.2 4.2-12.1 10.2-22.6 18.1-31.5 7.9-9 17.6-16 29.1-21.1 11.5-5.1 24.4-7.7 38.9-7.7 9.7 0 19 1.5 28 4.4 9 2.9 17.2 7.2 24.5 12.8 7.3 5.6 13.3 12.6 18 20.9 4.7 8.3 7.6 17.8 8.7 28.5H872c-2.5-10.5-7.2-18.4-14.2-23.7-7-5.3-15.5-7.9-25.6-7.9-9.3 0-17.2 1.8-23.7 5.4-6.5 3.6-11.8 8.4-15.8 14.5s-7 13-8.8 20.7c-1.8 7.7-2.8 15.7-2.8 24 0 7.9.9 15.6 2.8 23.1 1.8 7.5 4.8 14.2 8.8 20.2 4 6 9.3 10.8 15.8 14.4 6.5 3.6 14.4 5.4 23.7 5.4 13.7 0 24.3-3.5 31.8-10.4s11.8-16.9 13.1-30.1h-41.6V241h78.9v101.7h-26.3l-4.2-21.3c-7.3 9.5-15.5 16.1-24.5 19.9zm122.1-186.7v153.1h91.7v34.9h-133v-188h41.3zM786.3 366c-63.1 38.4-157.7 60.2-263.2 60.2C333 426.2 179 347.1 179 249.4c0-97.6 154.1-176.8 344.1-176.8 105.9 0 200.8 22.3 263.9 60.9C718.2 68.8 594.6 23.4 453.4 23.3 237 23.3 61.6 124.5 61.6 249.4c0 124.9 175.4 226.2 391.7 226.2 140.7 0 263.9-45.3 333-109.6zM439.6 139.9l-36.3 157-43.8-157h-33.2l-43.8 157-36.3-157h-34.3l53.8 204.7h32.2l45.3-160.8 44.7 160.8h32.3l55.7-204.7zm126.9 86.2c-5-7.1-11.3-12.5-18.7-16.2-7.6-3.8-16.4-5.7-26.2-5.7-11 0-20.9 2-29.5 5.9-8.1 3.7-15 9.2-20.6 16.3-10.3 13.1-15.7 31.6-15.7 53.5 0 9.7 1.4 18.9 4.1 27.1 2.7 8.3 6.8 15.6 12 21.7 11 12.8 26.7 19.6 45.4 19.6 9.8 0 17.8-1 24.5-3.1 5.8-1.8 9.7-4.2 12.9-6.3 4.1-2.7 7.8-6 11.2-9.8 2.8-3.3 5.3-6.9 7.5-10.8 3.8-7 5.7-13.6 6.1-17l.3-2.3h-26.7l-.1 1.9c-.7 8.7-12.1 24.2-32.4 24.2-29 0-35.9-21-36.4-39.5h97.2v-2.1c0-11.9-1.2-22.8-3.6-32.3-2.7-9.9-6.4-18.3-11.3-25.1zm-48 2.1c21.5 0 33 11.6 35.1 35.4H484c1.1-19.3 16.4-35.4 34.5-35.4zm197.2 17.5c-2.6-8.3-6.4-15.6-11.3-21.7-5.1-6.3-11.3-11.2-18.4-14.6-7.4-3.5-15.7-5.3-24.7-5.3-8.3.1-15.8 1.9-22.4 5.4-5.5 2.8-10.4 6.8-14.6 11.8v-62.8h-26.6v186H623v-12.7c2.2 2.9 5.1 6 8.9 8.7 7.2 5.2 16.1 7.8 26.4 7.8 11.1 0 21.1-2.5 29.5-7.4 7.5-4.4 13.9-10.7 18.9-18.7 4.4-7 7.7-15.3 9.9-24.6 1.9-8 2.9-16.8 2.9-25.4.1-9.3-1.2-18.3-3.8-26.5zm-23.9 30.2c0 14.6-2.9 26.8-8.5 35.4-5.9 9.1-14.5 13.7-25.5 13.7-15.9 0-34.5-11.1-34.5-42.5 0-15 1.9-26.6 5.7-35.4 5.5-12.7 14.8-18.8 28.3-18.8 14.4 0 24.1 5.6 29.5 17.3 4.4 9.6 5 21.3 5 30.3z"/>
</svg>